# xmcd
#
# Track frame offsets:
#	150
#	17813
#	29343
#	50346
#	75449
#	96313
#	116918
#	137782
#	149405
#	162109
#	182533
#	198182
#	204512
#
# Disc length: 2975 seconds
#
# Revision: 1
# Processed by: cddbd v1.4PL0 Copyright (c) Steve Scherf et al.
# Submitted via: audiograbber 1.81.02
#
DISCID=ae0b9d0d
DTITLE=Q-Stone - Q-Stone
DYEAR=1900
DGENRE=
TTITLE0=Sweet Dreams
TTITLE1=Open Door
TTITLE2=High Winds
TTITLE3=You Did It For Me
TTITLE4=The Blue View
TTITLE5=And I Wait
TTITLE6=Give Me Something Else
TTITLE7=Blues Man
TTITLE8=Black Water
TTITLE9=Behind The Bars
TTITLE10=Tomorrow With You
TTITLE11=Zack's Blues
TTITLE12=Dead Man At Dawn
EXTD=
EXTT0=
EXTT1=
EXTT2=
EXTT3=
EXTT4=
EXTT5=
EXTT6=
EXTT7=
EXTT8=
EXTT9=
EXTT10=
EXTT11=
EXTT12=
PLAYORDER=
